HIERARCHY
ROOT Hips
{
	OFFSET 0.000000 0.000000 0.000000
	CHANNELS 6 Xposition Yposition Zposition Xrotation Yrotation Zrotation
	JOINT LeftUpLeg_virtual
	{
		OFFSET 0.000000 0.000000 0.000000
		CHANNELS 3 Xrotation Yrotation Zrotation
		JOINT LeftUpLeg
		{
			OFFSET 11.394100 -6.187798 -0.413800
			CHANNELS 3 Xrotation Yrotation Zrotation
			JOINT LeftLeg
			{
				OFFSET 0.430247 -32.302673 3.732800
				CHANNELS 3 Xrotation Yrotation Zrotation
				JOINT LeftFoot
				{
					OFFSET -0.430247 -48.264931 -6.423300
					CHANNELS 3 Xrotation Yrotation Zrotation
					JOINT LeftToeBase
					{
						OFFSET 4.230900 -16.068199 23.438400
						CHANNELS 3 Xrotation Yrotation Zrotation
						JOINT LeftToe_End
						{
							OFFSET 4.510700 0.695400 19.974600
							CHANNELS 3 Xrotation Yrotation Zrotation
							End Site
							{
								OFFSET 0 0 0
							}
						}
					}
				}
			}
		}
	}
	JOINT RightUpLeg_virtual
	{
		OFFSET 0.000000 0.000000 0.000000
		CHANNELS 3 Xrotation Yrotation Zrotation
		JOINT RightUpLeg
		{
			OFFSET -11.333700 -6.187798 -0.413800
			CHANNELS 3 Xrotation Yrotation Zrotation
			JOINT RightLeg
			{
				OFFSET -0.430392 -32.302628 3.733000
				CHANNELS 3 Xrotation Yrotation Zrotation
				JOINT RightFoot
				{
					OFFSET 0.430392 -48.264973 -6.423500
					CHANNELS 3 Xrotation Yrotation Zrotation
					JOINT RightToeBase
					{
						OFFSET -4.230900 -16.068199 23.438400
						CHANNELS 3 Xrotation Yrotation Zrotation
						JOINT RightToe_End
						{
							OFFSET -4.510700 0.695400 19.974600
							CHANNELS 3 Xrotation Yrotation Zrotation
							End Site
							{
								OFFSET 0 0 0
							}
						}
					}
				}
			}
		}
	}
	JOINT Spine_virtual
	{
		OFFSET 0.000000 0.000000 0.000000
		CHANNELS 3 Xrotation Yrotation Zrotation
		JOINT Spine
		{
			OFFSET -0.002400 12.777504 0.315300
			CHANNELS 3 Xrotation Yrotation Zrotation
			JOINT Spine1
			{
				OFFSET -0.002067 5.816869 0.032633
				CHANNELS 3 Xrotation Yrotation Zrotation
				JOINT Spine1_split
				{
					OFFSET -0.002067 5.816869 0.032633
					CHANNELS 3 Xrotation Yrotation Zrotation
					JOINT Spine2
					{
						OFFSET -0.002067 5.816869 0.032633
						CHANNELS 3 Xrotation Yrotation Zrotation
						JOINT Neck_virtual
						{
							OFFSET 0.000000 0.000000 0.000000
							CHANNELS 3 Xrotation Yrotation Zrotation
							JOINT Neck
							{
								OFFSET -0.003700 21.199493 -0.826900
								CHANNELS 3 Xrotation Yrotation Zrotation
								JOINT Head
								{
									OFFSET 0.000000 20.442200 4.834800
									CHANNELS 3 Xrotation Yrotation Zrotation
									JOINT HeadTop_End
									{
										OFFSET 0.000000 34.668396 4.968400
										CHANNELS 3 Xrotation Yrotation Zrotation
										End Site
										{
											OFFSET 0 0 0
										}
									}
								}
							}
						}
						JOINT LeftShoulder_virtual
						{
							OFFSET 0.000000 0.000000 0.000000
							CHANNELS 3 Xrotation Yrotation Zrotation
							JOINT LeftShoulder
							{
								OFFSET 3.288150 8.794197 -1.372250
								CHANNELS 3 Xrotation Yrotation Zrotation
								JOINT LeftShoulder_split
								{
									OFFSET 3.288150 8.794197 -1.372250
									CHANNELS 3 Xrotation Yrotation Zrotation
									JOINT LeftArm
									{
										OFFSET 11.953299 -2.279007 -0.146200
										CHANNELS 3 Xrotation Yrotation Zrotation
										JOINT LeftForeArm
										{
											OFFSET 18.448900 0.000000 0.000000
											CHANNELS 3 Xrotation Yrotation Zrotation
											JOINT LeftHand
											{
												OFFSET 29.527798 0.000000 0.000000
												CHANNELS 3 Xrotation Yrotation Zrotation
												End Site
												{
													OFFSET 0 0 0
												}
											}
										}
									}
								}
							}
						}
						JOINT RightShoulder_virtual
						{
							OFFSET 0.000000 0.000000 0.000000
							CHANNELS 3 Xrotation Yrotation Zrotation
							JOINT RightShoulder
							{
								OFFSET -3.249400 8.794197 -1.372250
								CHANNELS 3 Xrotation Yrotation Zrotation
								JOINT RightShoulder_split
								{
									OFFSET -3.249400 8.794197 -1.372250
									CHANNELS 3 Xrotation Yrotation Zrotation
									JOINT RightArm
									{
										OFFSET -11.953299 -2.279007 -0.146200
										CHANNELS 3 Xrotation Yrotation Zrotation
										JOINT RightForeArm
										{
											OFFSET -18.448900 0.000000 0.000000
											CHANNELS 3 Xrotation Yrotation Zrotation
											JOINT RightHand
											{
												OFFSET -29.527802 0.000000 0.000000
												CHANNELS 3 Xrotation Yrotation Zrotation
												End Site
												{
													OFFSET 0 0 0
												}
											}
										}
									}
								}
							}
						}
					}
				}
			}
		}
	}
}
MOTION
Frames: 7
Frame Time: 0.03333333
6.154154 57.153412 16.830473 0.000000 0.000000 0.000000 2.053038 13.209360 1.055204 -99.027218 -15.700995 7.774182 80.802374 -0.790591 1.209702 18.206836 -7.389752 -12.912699 -5.777882 -0.115488 -5.735624 0.000000 0.000000 0.000000 1.349681 14.859100 1.202844 -98.837687 12.808352 -8.164857 84.206643 -0.328374 -1.263699 20.319992 -3.279245 19.459730 0.431300 -0.742506 -9.711644 0.000000 0.000000 0.000000 1.969350 17.860339 0.715591 9.195938 -0.652543 0.799830 0.142260 -2.770535 1.036087 0.269199 -0.562576 0.059071 0.000000 0.000000 0.000000 -1.008059 0.205212 1.436477 1.623840 5.702550 -0.309195 -17.269078 -31.115036 -23.423044 0.000000 0.000000 0.000000 -2.768399 -2.159427 0.165985 2.439819 -20.294988 -7.598533 -0.347751 0.292771 -2.674648 -6.838938 -8.379515 -65.959615 -3.472824 -56.141939 2.156598 0.000000 0.000000 0.000000 -1.350880 -1.508059 1.600782 0.398804 -3.808429 11.099588 -0.006786 1.406161 -1.101969 0.955264 39.038021 63.567177 -12.458239 50.195026 10.136595 0.000000 0.000000 0.000000 
6.174706 57.277496 16.830498 0.000000 0.000000 0.000000 2.285117 13.153657 1.013613 -99.367798 -15.899212 7.687077 80.629673 -0.820725 1.205705 18.649984 -7.492307 -12.950618 -5.644796 -0.088523 -5.812380 0.000000 0.000000 0.000000 1.556357 14.827323 1.221086 -98.733936 12.633813 -8.216435 83.773069 -0.430889 -1.171177 20.584520 -3.521891 19.317324 0.756299 -0.721874 -9.559082 0.000000 0.000000 0.000000 2.107182 17.618717 0.666373 9.143840 -0.645684 0.705239 0.229469 -2.759654 0.928591 0.332425 -0.451023 0.034346 0.000000 0.000000 0.000000 -0.808135 0.178250 1.426077 1.282114 5.914653 -0.143214 -16.006115 -31.049343 -23.308545 0.000000 0.000000 0.000000 -2.726499 -2.116884 0.161274 2.442483 -20.008798 -7.437110 -0.164424 0.005198 -2.499560 -6.988550 -8.450128 -66.224551 -3.133494 -55.753127 2.124280 0.000000 0.000000 0.000000 -1.255328 -1.528601 1.508426 0.427704 -3.706920 10.815301 0.172463 1.844434 -0.815997 0.650834 39.276272 64.054334 -12.136636 48.841132 9.761240 0.000000 0.000000 0.000000 
6.159431 57.467293 16.809795 0.000000 0.000000 0.000000 2.521809 12.929777 0.999229 -99.679419 -16.074459 7.557277 80.272987 -0.638456 1.126613 19.008843 -7.287860 -12.662590 -5.540772 -0.025058 -5.919325 0.000000 0.000000 0.000000 1.679189 14.458684 1.291124 -98.733144 12.430435 -8.303590 83.476455 -0.375717 -1.188926 21.001124 -3.736779 19.744952 0.240256 -0.590972 -10.106968 0.000000 0.000000 0.000000 2.229024 17.039838 0.650225 9.282687 -0.499007 0.421440 0.532362 -2.752908 0.800098 0.309226 -0.386582 0.020350 0.000000 0.000000 0.000000 -0.446759 0.187514 1.321329 1.210532 6.183230 0.383675 -14.155912 -30.465553 -22.339168 0.000000 0.000000 0.000000 -2.414238 -2.076805 0.104969 2.552357 -19.356176 -6.709209 0.215138 -0.150670 -1.947098 -7.810804 -8.566106 -67.325714 -2.564262 -55.218842 2.128900 0.000000 0.000000 0.000000 -0.963512 -1.533702 1.339643 0.483147 -3.714688 9.906601 0.381006 1.931313 -0.116258 -0.560787 39.452918 65.479596 -12.152641 47.427365 9.679199 0.000000 0.000000 0.000000 
6.100652 57.667862 16.759607 0.000000 0.000000 0.000000 2.732311 12.575504 1.019118 -99.873854 -16.154758 7.402285 79.853558 -0.239064 0.970996 19.134683 -6.800800 -12.089324 -5.106710 0.050627 -6.141300 0.000000 0.000000 0.000000 1.766745 13.927994 1.408152 -98.722537 12.310094 -8.340443 83.207837 -0.248382 -1.299636 21.139033 -4.072109 20.421011 -0.425504 -0.393968 -11.235025 0.000000 0.000000 0.000000 2.352441 16.296881 0.684022 9.588435 -0.243330 0.013743 1.037811 -2.741725 0.681399 0.224047 -0.365176 0.011842 0.000000 0.000000 0.000000 0.068961 0.240948 1.144391 1.407001 6.504017 1.085794 -12.223996 -29.299903 -20.866581 0.000000 0.000000 0.000000 -1.877299 -2.022374 0.028134 2.738917 -18.388017 -5.540520 0.488560 -0.274863 -1.124430 -9.164759 -8.898606 -68.887724 -1.977689 -54.643849 2.000919 0.000000 0.000000 0.000000 -0.509889 -1.529054 1.129824 0.588797 -3.903272 8.484394 0.686671 1.521382 0.622112 -2.478880 39.386245 67.619078 -12.563622 46.308826 9.932997 0.000000 0.000000 0.000000 
6.008684 57.827736 16.680168 0.000000 0.000000 0.000000 2.925027 12.173225 1.089777 -100.010239 -16.126367 7.269063 79.529896 0.182147 0.816871 19.112664 -6.286186 -11.535083 -4.220938 0.100036 -6.358299 0.000000 0.000000 0.000000 1.902090 13.468275 1.539460 -98.589737 12.314273 -8.284488 82.878465 -0.194873 -1.408895 20.786386 -4.740251 20.911189 -0.166837 -0.206182 -12.739097 0.000000 0.000000 0.000000 2.497118 15.601571 0.759002 10.047911 0.040240 -0.455552 1.699372 -2.726494 0.597264 0.137259 -0.398263 0.027937 0.000000 0.000000 0.000000 0.720396 0.320067 0.941187 1.740182 6.843381 1.757103 -10.743802 -27.550953 -19.359155 0.000000 0.000000 0.000000 -1.152377 -1.953594 -0.044018 2.957876 -17.246120 -4.146632 0.609243 -0.380773 -0.451870 -10.757178 -9.515823 -70.456912 -1.616433 -54.239359 1.556875 0.000000 0.000000 0.000000 0.081259 -1.516496 0.929935 0.737342 -4.212391 6.708197 1.058176 0.866616 1.238728 -4.695116 38.837330 70.215116 -13.321896 45.691295 10.481800 0.000000 0.000000 0.000000 
5.867483 57.895569 16.567745 0.000000 0.000000 0.000000 3.177276 11.835073 1.203820 -100.065529 -15.995859 7.166385 79.301187 0.448337 0.715119 19.017395 -5.974717 -11.153260 -3.370187 0.091088 -6.213546 0.000000 0.000000 0.000000 2.134442 13.299552 1.666783 -98.398109 12.487525 -8.116748 82.461359 -0.232290 -1.463378 20.184280 -5.671597 21.155133 1.124053 -0.075142 -14.506827 0.000000 0.000000 0.000000 2.663338 15.106147 0.841204 10.614119 0.277539 -0.903914 2.462814 -2.712021 0.570199 0.084239 -0.433811 0.054908 0.000000 0.000000 0.000000 1.468337 0.409634 0.758364 2.076346 7.211905 2.199064 -10.009642 -25.386024 -18.193008 0.000000 0.000000 0.000000 -0.304501 -1.884998 -0.096852 3.159548 -16.081691 -2.784684 0.715432 -0.425852 -0.092994 -12.195608 -10.214589 -71.692316 -1.550082 -54.082131 0.755794 0.000000 0.000000 0.000000 0.756581 -1.486399 0.777538 0.900446 -4.558829 4.803139 1.579457 0.352953 1.690289 -6.917076 37.778828 72.991001 -14.368573 45.605532 11.273973 0.000000 0.000000 0.000000 
5.692622 57.887154 16.373632 0.000000 0.000000 0.000000 3.576811 11.600217 1.341701 -100.044438 -15.766604 7.155198 79.131362 0.462026 0.679594 18.862479 -5.987836 -11.009574 -2.909842 0.040886 -5.578396 0.000000 0.000000 0.000000 2.529293 13.464923 1.753691 -98.309822 12.839840 -7.830446 82.074640 -0.181908 -1.568923 19.788719 -6.508923 21.496777 2.578252 0.063109 -16.522945 0.000000 0.000000 0.000000 2.962402 14.821738 0.908521 11.221921 0.405257 -1.284699 3.250217 -2.708960 0.598625 0.081474 -0.462045 0.065698 0.000000 0.000000 0.000000 2.245165 0.493140 0.622847 2.289206 7.577246 2.292090 -9.977264 -23.122639 -17.503321 0.000000 0.000000 0.000000 0.578865 -1.847222 -0.130759 3.293430 -15.118665 -1.726229 0.857718 -0.352032 0.293288 -13.217869 -10.762782 -72.485970 -1.660975 -54.296889 -0.251452 0.000000 0.000000 0.000000 1.458534 -1.432560 0.712197 1.052061 -4.839314 3.001278 2.029644 0.082748 1.991904 -8.901363 36.286309 75.604962 -15.610689 45.865246 12.222667 0.000000 0.000000 0.000000 
